<svg width="60" height="45" viewBox="0 0 60 45" fill="none" xmlns="http://www.w3.org/2000/svg">
<path d="M50.2957 3.76868C46.3948 1.98273 42.2766 0.715712 38.0463 0C37.4675 1.03481 36.9437 2.0995 36.4772 3.1896C31.9712 2.51059 27.3889 2.51059 22.8829 3.1896C22.4162 2.09961 21.8924 1.03494 21.3138 0C17.0808 0.721756 12.9599 1.99178 9.05506 3.77802C1.30288 15.2475 -0.798613 26.4321 0.252135 37.458C4.79201 40.8122 9.87341 43.3632 15.2755 45C16.4919 43.364 17.5682 41.6284 18.4931 39.8116C16.7364 39.1555 15.0409 38.3461 13.4262 37.3926C13.8511 37.0844 14.2668 36.7668 14.6684 36.4586C19.3668 38.6682 24.495 39.8138 29.6871 39.8138C34.8792 39.8138 40.0073 38.6682 44.7057 36.4586C45.112 36.7902 45.5277 37.1077 45.948 37.3926C44.3301 38.3476 42.6315 39.1586 40.8717 39.8163C41.7954 41.6322 42.8719 43.3664 44.0893 45C49.496 43.3698 54.5813 40.82 59.122 37.4626C60.3549 24.6762 57.0158 13.5943 50.2957 3.76868ZM19.8241 30.6771C16.896 30.6771 14.4769 28.0199 14.4769 24.7509C14.4769 21.4819 16.8119 18.8014 19.8147 18.8014C22.8175 18.8014 25.2179 21.4819 25.1665 24.7509C25.1151 28.0199 22.8082 30.6771 19.8241 30.6771ZM39.5501 30.6771C36.6173 30.6771 34.2076 28.0199 34.2076 24.7509C34.2076 21.4819 36.5426 18.8014 39.5501 18.8014C42.5576 18.8014 44.9392 21.4819 44.8879 24.7509C44.8365 28.0199 42.5342 30.6771 39.5501 30.6771Z" fill="white"/>
</svg>
