<svg width="47" height="45" viewBox="0 0 47 45" fill="none" xmlns="http://www.w3.org/2000/svg">
<path d="M15.4371 36.2339C15.4371 36.42 15.2231 36.5689 14.9532 36.5689C14.6462 36.5968 14.4322 36.4479 14.4322 36.2339C14.4322 36.0478 14.6462 35.8989 14.916 35.8989C15.1952 35.871 15.4371 36.0199 15.4371 36.2339ZM12.5432 35.8152C12.4781 36.0013 12.6642 36.2153 12.9433 36.2712C13.1853 36.3642 13.4644 36.2712 13.5203 36.085C13.5761 35.8989 13.3993 35.6849 13.1201 35.6012C12.8782 35.5361 12.6084 35.6291 12.5432 35.8152ZM16.6561 35.657C16.3862 35.7222 16.2001 35.8989 16.228 36.113C16.256 36.2991 16.4979 36.42 16.777 36.3549C17.0469 36.2898 17.233 36.113 17.2051 35.9269C17.1772 35.7501 16.9259 35.6291 16.6561 35.657ZM22.7788 0C9.87268 0 0 9.79824 0 22.7044C0 33.0237 6.49494 41.8542 15.7721 44.9621C16.9631 45.1761 17.3819 44.441 17.3819 43.8362C17.3819 43.2593 17.354 40.0769 17.354 38.1229C17.354 38.1229 10.8404 39.5186 9.47256 35.3499C9.47256 35.3499 8.41178 32.6422 6.88575 31.9443C6.88575 31.9443 4.75489 30.4834 7.03463 30.5113C7.03463 30.5113 9.35159 30.6974 10.6264 32.912C12.6642 36.5038 16.0792 35.4709 17.4098 34.8568C17.6238 33.368 18.2286 32.3351 18.8986 31.721C13.6971 31.1441 8.449 30.3903 8.449 21.4389C8.449 18.88 9.15619 17.5959 10.645 15.9582C10.4031 15.3534 9.61213 12.8596 10.8869 9.64005C12.8317 9.03522 17.3074 12.1524 17.3074 12.1524C19.1684 11.6313 21.169 11.3615 23.151 11.3615C25.133 11.3615 27.1336 11.6313 28.9946 12.1524C28.9946 12.1524 33.4703 9.02592 35.4151 9.64005C36.6899 12.8689 35.899 15.3534 35.657 15.9582C37.1458 17.6052 38.0577 18.8893 38.0577 21.4389C38.0577 30.4183 32.577 31.1348 27.3755 31.721C28.2316 32.4561 28.9574 33.8518 28.9574 36.0385C28.9574 39.1743 28.9295 43.0545 28.9295 43.8176C28.9295 44.4224 29.3575 45.1575 30.5392 44.9435C39.8443 41.8542 46.1531 33.0237 46.1531 22.7044C46.1531 9.79824 35.6849 0 22.7788 0ZM9.04453 32.0932C8.92356 32.1862 8.95148 32.4002 9.10966 32.577C9.25854 32.7259 9.47256 32.7911 9.59352 32.6701C9.71449 32.577 9.68657 32.363 9.52839 32.1862C9.37951 32.0373 9.16549 31.9722 9.04453 32.0932ZM8.03958 31.3395C7.97444 31.4604 8.06749 31.6093 8.25359 31.7024C8.40248 31.7954 8.58858 31.7675 8.65371 31.6372C8.71885 31.5163 8.6258 31.3674 8.4397 31.2743C8.25359 31.2185 8.10471 31.2464 8.03958 31.3395ZM11.0544 34.6521C10.9055 34.773 10.9614 35.0522 11.1754 35.229C11.3894 35.443 11.6592 35.4709 11.7802 35.322C11.9012 35.2011 11.8454 34.9219 11.6592 34.7451C11.4545 34.5311 11.1754 34.5032 11.0544 34.6521ZM9.99364 33.2842C9.84476 33.3773 9.84476 33.6192 9.99364 33.8332C10.1425 34.0472 10.3938 34.1403 10.5147 34.0472C10.6636 33.9263 10.6636 33.6843 10.5147 33.4703C10.3845 33.2563 10.1425 33.1633 9.99364 33.2842Z" fill="#F3FAFF"/>
</svg>
