<svg width="45" height="45" viewBox="0 0 45 45" fill="none" xmlns="http://www.w3.org/2000/svg">
<path d="M30.5292 13.7903C29.2137 5.68851 26.1109 0 22.5 0C18.8891 0 15.7863 5.68851 14.4708 13.7903H30.5292ZM13.7903 22.5C13.7903 24.5141 13.8992 26.4466 14.0897 28.3065H30.9012C31.0917 26.4466 31.2006 24.5141 31.2006 22.5C31.2006 20.4859 31.0917 18.5534 30.9012 16.6935H14.0897C13.8992 18.5534 13.7903 20.4859 13.7903 22.5ZM43.249 13.7903C40.6542 7.63004 35.4012 2.86694 28.9143 0.943548C31.128 4.01008 32.6522 8.62802 33.4506 13.7903H43.249ZM16.0766 0.943548C9.59879 2.86694 4.33669 7.63004 1.75101 13.7903H11.5494C12.3387 8.62802 13.8629 4.01008 16.0766 0.943548ZM44.2198 16.6935H33.8135C34.004 18.5988 34.1129 20.5494 34.1129 22.5C34.1129 24.4506 34.004 26.4012 33.8135 28.3065H44.2107C44.7097 26.4466 44.9909 24.5141 44.9909 22.5C44.9909 20.4859 44.7097 18.5534 44.2198 16.6935ZM10.8871 22.5C10.8871 20.5494 10.996 18.5988 11.1865 16.6935H0.780242C0.290323 18.5534 0 20.4859 0 22.5C0 24.5141 0.290323 26.4466 0.780242 28.3065H11.1774C10.996 26.4012 10.8871 24.4506 10.8871 22.5ZM14.4708 31.2097C15.7863 39.3115 18.8891 45 22.5 45C26.1109 45 29.2137 39.3115 30.5292 31.2097H14.4708ZM28.9234 44.0565C35.4012 42.1331 40.6633 37.37 43.2581 31.2097H33.4597C32.6613 36.372 31.1371 40.9899 28.9234 44.0565ZM1.75101 31.2097C4.34577 37.37 9.59879 42.1331 16.0857 44.0565C13.872 40.9899 12.3478 36.372 11.5494 31.2097H1.75101Z" fill="#F3FAFF"/>
</svg>
