<svg width="31" height="45" viewBox="0 0 31 45" fill="none" xmlns="http://www.w3.org/2000/svg">
<path d="M15.506 0C8.49065 0 3.9468 2.87429 0.379404 8.00033C-0.267735 8.93021 -0.0682231 10.2052 0.834502 10.8896L4.62593 13.7645C5.53762 14.4557 6.83479 14.2941 7.54855 13.3999C9.75013 10.6418 11.3832 9.05379 14.8221 9.05379C17.526 9.05379 20.8704 10.7939 20.8704 13.4159C20.8704 15.398 19.2341 16.4159 16.5644 17.9127C13.451 19.6582 9.33106 21.8305 9.33106 27.2647V28.125C9.33106 29.29 10.2754 30.2344 11.4404 30.2344H17.81C18.975 30.2344 19.9193 29.29 19.9193 28.125V27.6176C19.9193 23.8506 30.9292 23.6937 30.9292 13.5C30.9293 5.82328 22.9662 0 15.506 0ZM14.6252 32.8235C11.2682 32.8235 8.53697 35.5547 8.53697 38.9118C8.53697 42.2688 11.2682 45 14.6252 45C17.9823 45 20.7135 42.2688 20.7135 38.9117C20.7135 35.5547 17.9823 32.8235 14.6252 32.8235Z" fill="#F3FAFF"/>
</svg>
