<svg width="1592" height="262" viewBox="0 0 1592 262" fill="none" xmlns="http://www.w3.org/2000/svg">
<path d="M121 176.525C124.521 180.232 126.281 184.401 126.281 189.034C126.281 193.667 124.428 197.559 120.722 200.71C117.201 203.86 113.401 205.436 109.324 205.436C104.506 205.436 100.429 203.582 97.093 199.876L47.0558 147.059L33.4346 159.568V188.756C33.4346 193.575 31.8593 197.652 28.7088 200.988C25.5583 204.138 21.5739 205.713 16.7555 205.713C11.9371 205.713 7.95266 204.138 4.80217 200.988C1.65168 197.652 0.0764313 193.575 0.0764313 188.756L0.0764313 16.9621C0.0764313 12.1437 1.65168 8.1592 4.80217 5.00871C7.95266 1.67291 11.9371 0.00500488 16.7555 0.00500488C21.5739 0.00500488 25.5583 1.67291 28.7088 5.00871C31.8593 8.1592 33.4346 12.1437 33.4346 16.9621V119.816L92.9232 62.2735C96.4444 58.7524 100.521 56.9918 105.155 56.9918C109.232 56.9918 112.845 58.7524 115.996 62.2735C119.332 65.6093 121 69.0378 121 72.5589C121 77.0067 118.776 81.1765 114.328 85.0682L72.3524 123.708L121 176.525Z" fill="#F3FAFF"/>
<path fill-rule="evenodd" clip-rule="evenodd" d="M72.3524 123.708L121 176.525C124.521 180.232 126.281 184.401 126.281 189.034C126.281 193.668 124.428 197.559 120.722 200.71C117.201 203.86 113.401 205.436 109.324 205.436C104.506 205.436 100.429 203.582 97.093 199.876L47.0558 147.059L33.4346 159.568V188.756C33.4346 188.767 33.4346 188.778 33.4345 188.788L33.4345 55.6019H33.4346V119.816L92.9232 62.2735C96.4444 58.7524 100.521 56.9918 105.155 56.9918C109.232 56.9918 112.845 58.7524 115.996 62.2735C119.332 65.6093 121 69.0378 121 72.559C121 77.0067 118.776 81.1765 114.328 85.0683L72.3524 123.708Z" fill="#2AB0EA"/>
<path d="M274.845 54.212C279.663 54.212 283.647 55.7872 286.798 58.9377C289.948 62.0882 291.524 66.1653 291.524 71.169V188.756C291.524 193.575 289.948 197.652 286.798 200.988C283.647 204.138 279.663 205.714 274.845 205.714C270.026 205.714 266.042 204.138 262.891 200.988C259.926 197.837 258.351 193.853 258.165 189.034C253.532 194.409 247.231 199.042 239.263 202.934C231.479 206.64 223.232 208.493 214.522 208.493C201.735 208.493 190.152 205.25 179.774 198.764C169.396 192.092 161.149 182.919 155.033 171.243C149.103 159.568 146.138 146.317 146.138 131.492C146.138 116.666 149.103 103.415 155.033 91.7399C160.964 79.8792 169.025 70.7057 179.218 64.2194C189.596 57.5478 200.993 54.212 213.41 54.212C222.305 54.212 230.645 55.8799 238.429 59.2157C246.212 62.3662 252.791 66.4433 258.165 71.447V71.169C258.165 66.3506 259.741 62.3662 262.891 59.2157C266.042 55.8799 270.026 54.212 274.845 54.212ZM218.692 177.915C230.738 177.915 240.56 173.56 248.158 164.85C255.756 155.954 259.555 144.835 259.555 131.492C259.555 118.148 255.756 107.029 248.158 98.1335C240.56 89.238 230.738 84.7903 218.692 84.7903C206.831 84.7903 197.102 89.238 189.503 98.1335C181.905 107.029 178.106 118.148 178.106 131.492C178.106 144.835 181.812 155.954 189.225 164.85C196.824 173.56 206.646 177.915 218.692 177.915Z" fill="#F3FAFF"/>
<path fill-rule="evenodd" clip-rule="evenodd" d="M274.866 54.212C279.675 54.2165 283.652 55.7918 286.798 58.9377C289.948 62.0882 291.524 66.1653 291.524 71.169V188.756C291.524 193.575 289.948 197.652 286.798 200.988C283.647 204.138 279.663 205.714 274.845 205.714C270.026 205.714 266.042 204.138 262.891 200.988C259.941 197.853 258.366 193.892 258.168 189.105L258.168 144.645C259.093 140.531 259.555 136.147 259.555 131.492C259.555 126.837 259.093 122.452 258.168 118.339L258.168 70.8174C258.243 66.1564 259.818 62.2892 262.891 59.2157C266.037 55.8846 270.015 54.2167 274.824 54.212L274.866 54.212Z" fill="#2AB0EA"/>
<path d="M404.676 54.212C417.464 54.212 429.046 57.5478 439.424 64.2194C449.802 70.7057 457.957 79.7865 463.887 91.4619C470.003 103.137 473.06 116.388 473.06 131.214C473.06 146.04 470.095 159.383 464.165 171.243C458.235 182.919 450.08 192.092 439.702 198.764C429.51 205.25 418.205 208.493 405.788 208.493C396.893 208.493 388.461 206.733 380.492 203.212C372.708 199.505 366.222 195.057 361.033 189.868V244.353C361.033 249.172 359.458 253.156 356.307 256.307C353.157 259.642 349.172 261.31 344.354 261.31C339.535 261.31 335.551 259.735 332.4 256.585C329.25 253.434 327.675 249.357 327.675 244.353V73.9489C327.675 69.1305 329.25 65.146 332.4 61.9955C335.551 58.6597 339.535 56.9918 344.354 56.9918C349.172 56.9918 353.157 58.6597 356.307 61.9955C359.458 65.146 361.033 69.1305 361.033 73.9489V75.0608C365.481 69.5011 371.689 64.6827 379.658 60.6056C387.627 56.3432 395.966 54.212 404.676 54.212ZM400.507 177.915C412.367 177.915 422.097 173.467 429.695 164.572C437.293 155.676 441.092 144.557 441.092 131.214C441.092 117.87 437.293 106.844 429.695 98.1335C422.282 89.238 412.553 84.7903 400.507 84.7903C388.461 84.7903 378.638 89.238 371.04 98.1335C363.442 106.844 359.643 117.87 359.643 131.214C359.643 144.557 363.442 155.676 371.04 164.572C378.638 173.467 388.461 177.915 400.507 177.915Z" fill="#F3FAFF"/>
<path fill-rule="evenodd" clip-rule="evenodd" d="M344.372 56.9918C349.182 56.996 353.16 58.6639 356.307 61.9955C359.457 65.146 361.033 69.1305 361.033 73.9489V75.0608C361.033 75.0604 361.033 75.06 361.034 75.0596V118.078C360.106 122.174 359.643 126.552 359.643 131.214C359.643 135.875 360.106 140.265 361.034 144.383V189.869C361.033 189.869 361.033 189.869 361.033 189.868V244.353C361.033 249.172 359.457 253.156 356.307 256.307C353.156 259.643 349.172 261.31 344.354 261.31C339.535 261.31 335.551 259.735 332.4 256.585C329.294 253.479 327.719 249.472 327.676 244.565L327.676 73.7452C327.719 69.0181 329.294 65.1015 332.4 61.9955C335.547 58.6639 339.525 56.996 344.335 56.9918H344.372Z" fill="#2AB0EA"/>
<path d="M532.284 188.756C532.284 193.575 530.709 197.652 527.558 200.988C524.408 204.138 520.423 205.713 515.605 205.713C510.787 205.713 506.802 204.138 503.652 200.988C500.501 197.652 498.926 193.575 498.926 188.756V73.9488C498.926 69.1304 500.501 65.146 503.652 61.9955C506.802 58.6597 510.787 56.9918 515.605 56.9918C520.423 56.9918 524.408 58.6597 527.558 61.9955C530.709 65.146 532.284 69.1304 532.284 73.9488V188.756ZM515.327 38.9228C509.026 38.9228 504.578 37.9035 501.984 35.865C499.389 33.8264 498.092 30.2126 498.092 25.0236V19.7419C498.092 14.5528 499.482 10.939 502.262 8.90049C505.042 6.86193 509.489 5.84265 515.605 5.84265C522.091 5.84265 526.632 6.86193 529.226 8.90049C531.821 10.939 533.118 14.5528 533.118 19.7419V25.0236C533.118 30.3979 531.728 34.1044 528.948 36.143C526.354 37.9962 521.813 38.9228 515.327 38.9228Z" fill="#F3FAFF"/>
<path fill-rule="evenodd" clip-rule="evenodd" d="M515.327 38.9228C509.026 38.9228 504.578 37.9035 501.984 35.865C499.389 33.8264 498.092 30.2126 498.092 25.0236V19.7419C498.092 14.5528 499.482 10.939 502.262 8.90048C505.042 6.86192 509.489 5.84264 515.605 5.84264C522.091 5.84264 526.632 6.86192 529.226 8.90048C531.821 10.939 533.118 14.5528 533.118 19.7419V25.0236C533.118 30.3979 531.728 34.1044 528.948 36.143C526.354 37.9962 521.813 38.9228 515.327 38.9228Z" fill="#2AB0EA"/>
<path d="M737.806 56.9918C742.254 56.9918 745.96 58.6597 748.925 61.9955C752.076 65.146 753.651 69.2231 753.651 74.2269C753.651 75.8948 753.28 78.026 752.539 80.6205L710.008 195.15C708.896 198.486 706.857 201.173 703.892 203.212C701.112 205.065 698.054 205.991 694.718 205.991L692.494 205.714C686.193 205.343 681.468 201.822 678.317 195.15L654.689 126.766L632.172 195.15C629.021 201.822 624.296 205.343 617.995 205.714L615.771 205.991C612.435 205.991 609.284 205.065 606.319 203.212C603.539 201.173 601.594 198.486 600.482 195.15L557.95 80.6205C557.209 78.5819 556.838 76.4507 556.838 74.2269C556.838 69.5938 558.321 65.6093 561.286 62.2735C564.436 58.7524 568.513 56.9918 573.517 56.9918C577.224 56.9918 580.374 57.9184 582.969 59.7717C585.748 61.4396 587.694 64.0341 588.806 67.5552L618.829 149.005L640.789 89.516C643.755 82.6591 648.851 79.2306 656.079 79.2306C659.97 79.2306 662.935 80.0645 664.974 81.7324C667.198 83.4003 669.051 85.9949 670.534 89.516L691.939 147.615L721.683 67.5552C722.795 64.0341 724.741 61.4396 727.521 59.7717C730.3 57.9184 733.729 56.9918 737.806 56.9918Z" fill="#F3FAFF"/>
<path d="M691.938 147.615L710.007 195.15C708.895 198.486 706.857 201.173 703.892 203.212C701.112 205.065 698.054 205.991 694.718 205.991L692.494 205.714C686.193 205.343 681.468 201.822 678.317 195.15L654.688 126.766L640.789 89.516C643.754 82.6591 648.851 79.2306 656.078 79.2306C659.97 79.2306 662.935 80.0645 664.974 81.7325C667.198 83.4004 669.051 85.9949 670.534 89.516L691.938 147.615Z" fill="#2AB0EA"/>
<path fill-rule="evenodd" clip-rule="evenodd" d="M618.903 148.804L632.913 186.558C633.384 187.827 633.652 189.122 633.734 190.407L632.172 195.15C629.021 201.822 624.296 205.343 617.995 205.714L615.771 205.991C612.435 205.991 609.284 205.065 606.319 203.212C603.539 201.173 601.594 198.486 600.482 195.15L557.95 80.6205C557.209 78.5819 556.838 76.4507 556.838 74.2269C556.838 69.5938 558.321 65.6093 561.286 62.2735C564.436 58.7524 568.513 56.9918 573.517 56.9918C577.224 56.9918 580.374 57.9184 582.969 59.7717C585.102 61.0515 586.744 62.8771 587.895 65.2482L596.956 89.6649L618.829 149.005L618.903 148.804Z" fill="#2AB0EA"/>
<path d="M794.397 38.9228C788.096 38.9228 783.649 37.9035 781.054 35.865C778.46 33.8264 777.162 30.2126 777.162 25.0236V19.7419C777.162 14.5528 778.552 10.939 781.332 8.90049C784.112 6.86193 788.56 5.84265 794.675 5.84265C801.162 5.84265 805.702 6.86193 808.297 8.90049C810.891 10.939 812.188 14.5528 812.188 19.7419V25.0236C812.188 30.3979 810.798 34.1044 808.019 36.143C805.424 37.9962 800.884 38.9228 794.397 38.9228Z" fill="#F3FAFF"/>
<path fill-rule="evenodd" clip-rule="evenodd" d="M811.354 188.756C811.354 193.575 809.779 197.652 806.629 200.988C803.478 204.138 799.494 205.713 794.675 205.713C789.857 205.713 785.872 204.138 782.722 200.988C779.572 197.652 777.996 193.575 777.996 188.756V73.9488C777.996 69.1304 779.572 65.146 782.722 61.9955C785.872 58.6597 789.857 56.9918 794.675 56.9918C799.494 56.9918 803.478 58.6597 806.629 61.9955C809.779 65.146 811.354 69.1304 811.354 73.9488V188.756Z" fill="#2AB0EA"/>
<path d="M881.776 188.756C881.776 193.575 880.108 197.652 876.772 200.988C873.622 204.138 869.637 205.713 864.819 205.713C860.186 205.713 856.294 204.138 853.143 200.988C849.993 197.652 848.418 193.575 848.418 188.756V16.9621C848.418 12.1437 849.993 8.1592 853.143 5.00871C856.479 1.67291 860.556 0.00500488 865.375 0.00500488C870.008 0.00500488 873.9 1.67291 877.05 5.00871C880.201 8.1592 881.776 12.1437 881.776 16.9621V188.756Z" fill="#F3FAFF"/>
<path d="M1044.26 176.525C1047.78 180.232 1049.55 184.401 1049.55 189.034C1049.55 193.667 1047.69 197.559 1043.99 200.71C1040.46 203.86 1036.67 205.436 1032.59 205.436C1027.77 205.436 1023.69 203.582 1020.36 199.876L970.32 147.059L956.699 159.568V188.756C956.699 193.575 955.123 197.652 951.973 200.988C948.822 204.138 944.838 205.713 940.02 205.713C935.201 205.713 931.217 204.138 928.066 200.988C924.916 197.652 923.34 193.575 923.34 188.756V16.9621C923.34 12.1437 924.916 8.1592 928.066 5.00871C931.217 1.67291 935.201 0.00500488 940.02 0.00500488C944.838 0.00500488 948.822 1.67291 951.973 5.00871C955.123 8.1592 956.699 12.1437 956.699 16.9621V119.816L1016.19 62.2735C1019.71 58.7524 1023.79 56.9918 1028.42 56.9918C1032.5 56.9918 1036.11 58.7524 1039.26 62.2735C1042.6 65.6093 1044.26 69.0378 1044.26 72.5589C1044.26 77.0067 1042.04 81.1765 1037.59 85.0682L995.616 123.708L1044.26 176.525Z" fill="#2AB0EA"/>
<path fill-rule="evenodd" clip-rule="evenodd" d="M1044.26 176.525C1047.78 180.232 1049.55 184.401 1049.55 189.034C1049.55 193.668 1047.69 197.559 1043.99 200.71C1040.46 203.86 1036.67 205.436 1032.59 205.436C1027.77 205.436 1023.69 203.582 1020.36 199.876L970.32 147.059L956.699 159.568V188.756C956.699 188.778 956.699 188.8 956.699 188.822L956.699 55.6019H956.699V119.816L1016.19 62.2735C1019.71 58.7524 1023.79 56.9918 1028.42 56.9918C1032.5 56.9918 1036.11 58.7524 1039.26 62.2735C1042.6 65.6093 1044.26 69.0378 1044.26 72.5589C1044.26 77.0067 1042.04 81.1765 1037.59 85.0682L995.616 123.708L1044.26 176.525Z" fill="#F3FAFF"/>
<path d="M1187.83 56.9918C1192.65 56.9918 1196.64 58.6597 1199.79 61.9955C1202.94 65.146 1204.51 69.1305 1204.51 73.9489V144.557C1204.51 164.572 1198.95 180.232 1187.83 191.536C1176.9 202.841 1161.24 208.493 1140.85 208.493C1120.47 208.493 1104.81 202.841 1093.87 191.536C1082.94 180.232 1077.47 164.572 1077.47 144.557V73.9489C1077.47 69.1305 1079.05 65.146 1082.2 61.9955C1085.35 58.6597 1089.33 56.9918 1094.15 56.9918C1098.97 56.9918 1102.95 58.6597 1106.1 61.9955C1109.26 65.146 1110.83 69.1305 1110.83 73.9489V144.557C1110.83 155.862 1113.33 164.294 1118.34 169.854C1123.34 175.228 1130.85 177.915 1140.85 177.915C1151.05 177.915 1158.64 175.228 1163.65 169.854C1168.65 164.294 1171.15 155.862 1171.15 144.557V73.9489C1171.15 69.1305 1172.73 65.146 1175.88 61.9955C1179.03 58.6597 1183.01 56.9918 1187.83 56.9918Z" fill="#F3FAFF"/>
<path fill-rule="evenodd" clip-rule="evenodd" d="M1077.82 70.2023C1078.45 67.0247 1079.9 64.2891 1082.2 61.9956C1085.35 58.6597 1089.33 56.9918 1094.15 56.9918C1098.97 56.9918 1102.95 58.6597 1106.11 61.9956C1109.26 65.1461 1110.83 69.1305 1110.83 73.9489V144.557C1110.83 155.862 1113.33 164.294 1118.34 169.854C1123.34 175.228 1130.85 177.915 1140.85 177.915C1141.02 177.915 1141.18 177.914 1141.34 177.913V208.492C1141.18 208.493 1141.02 208.493 1140.85 208.493C1120.47 208.493 1104.81 202.841 1093.87 191.536C1084.54 181.882 1079.19 169.052 1077.82 153.045L1077.82 70.2023Z" fill="#2AB0EA"/>
<path d="M1428.06 179.305C1430.47 182.27 1431.68 185.606 1431.68 189.312C1431.68 193.945 1429.92 197.93 1426.4 201.266C1422.87 204.602 1418.98 206.269 1414.72 206.269C1409.35 206.269 1404.81 203.86 1401.1 199.042L1367.74 157.622L1335.22 199.042C1333.55 201.266 1331.51 203.026 1329.1 204.324C1326.88 205.436 1324.47 205.991 1321.87 205.991C1317.98 205.991 1314.27 204.509 1310.75 201.544C1307.23 198.579 1305.47 195.15 1305.47 191.258C1305.47 187.552 1306.86 184.031 1309.64 180.695L1348.28 133.438L1308.25 83.6783C1305.84 80.7132 1304.64 77.3774 1304.64 73.6709C1304.64 69.0378 1306.31 65.146 1309.64 61.9955C1313.16 58.6597 1317.15 56.9918 1321.59 56.9918C1326.97 56.9918 1331.51 59.3084 1335.22 63.9414L1369.41 106.473L1401.1 64.4974C1404.62 59.4937 1409.07 56.9918 1414.44 56.9918C1418.89 56.9918 1422.6 58.5671 1425.56 61.7176C1428.71 64.6827 1430.29 68.1112 1430.29 72.003C1430.29 76.0801 1428.99 79.6939 1426.4 82.8444L1388.03 129.546L1428.06 179.305Z" fill="#F3FAFF"/>
<path d="M1388.03 129.546L1367.74 157.622L1335.22 199.042C1333.55 201.266 1331.51 203.026 1329.1 204.324C1326.88 205.436 1324.47 205.991 1321.87 205.991C1317.98 205.991 1314.27 204.509 1310.75 201.544C1307.23 198.579 1305.47 195.15 1305.47 191.258C1305.47 187.552 1306.86 184.031 1309.64 180.695L1348.28 133.438L1369.41 106.473L1401.1 64.4974C1404.62 59.4937 1409.07 56.9918 1414.44 56.9918C1418.89 56.9918 1422.6 58.5671 1425.56 61.7176C1428.71 64.6827 1430.29 68.1112 1430.29 72.003C1430.29 76.0801 1428.99 79.6939 1426.4 82.8444L1388.03 129.546Z" fill="#2AB0EA"/>
<path d="M1574.37 0.00500488C1579.19 0.00500488 1583.17 1.58025 1586.32 4.73073C1589.47 7.88122 1591.05 11.9583 1591.05 16.9621V188.756C1591.05 193.575 1589.47 197.652 1586.32 200.988C1583.17 204.138 1579.19 205.713 1574.37 205.713C1569.55 205.713 1565.56 204.138 1562.41 200.988C1559.45 197.837 1557.87 193.853 1557.69 189.034C1553.06 194.409 1546.75 199.042 1538.79 202.934C1531 206.64 1522.75 208.493 1514.04 208.493C1501.26 208.493 1489.67 205.25 1479.3 198.764C1468.92 192.092 1460.67 182.919 1454.56 171.243C1448.63 159.568 1445.66 146.317 1445.66 131.492C1445.66 116.666 1448.63 103.415 1454.56 91.7399C1460.49 79.8792 1468.55 70.7057 1478.74 64.2194C1489.12 57.5478 1500.52 54.212 1512.93 54.212C1521.83 54.212 1530.17 55.8799 1537.95 59.2157C1545.74 62.3662 1552.31 66.4433 1557.69 71.447V16.9621C1557.69 12.1437 1559.26 8.1592 1562.41 5.00871C1565.56 1.67291 1569.55 0.00500488 1574.37 0.00500488ZM1518.21 177.915C1530.26 177.915 1540.08 173.56 1547.68 164.85C1555.28 155.954 1559.08 144.835 1559.08 131.492C1559.08 118.148 1555.28 107.029 1547.68 98.1335C1540.08 89.238 1530.26 84.7903 1518.21 84.7903C1506.35 84.7903 1496.62 89.238 1489.03 98.1335C1481.43 107.029 1477.63 118.148 1477.63 131.492C1477.63 144.835 1481.34 155.954 1488.75 164.85C1496.35 173.56 1506.17 177.915 1518.21 177.915Z" fill="#2AB0EA"/>
<path fill-rule="evenodd" clip-rule="evenodd" d="M1557.69 189.077C1557.88 193.876 1559.46 197.847 1562.41 200.988C1565.56 204.138 1569.55 205.714 1574.37 205.714C1579.19 205.714 1583.17 204.138 1586.32 200.988C1589.47 197.652 1591.05 193.575 1591.05 188.756V16.9621C1591.05 11.9583 1589.47 7.88122 1586.32 4.73073C1583.17 1.58024 1579.19 0.00500104 1574.37 0.00500104C1569.55 0.00500104 1565.56 1.6729 1562.41 5.00871C1559.32 8.09987 1557.75 11.9939 1557.69 16.6907L1557.69 118.334C1558.62 122.449 1559.08 126.835 1559.08 131.492C1559.08 136.149 1558.62 140.535 1557.69 144.65V189.077Z" fill="#F3FAFF"/>
</svg>
