<svg width="56" height="45" viewBox="0 0 56 45" fill="none" xmlns="http://www.w3.org/2000/svg">
<path d="M49.7109 11.2148C49.7461 11.707 49.7461 12.1992 49.7461 12.6914C49.7461 27.7031 38.3204 45 17.4375 45C11.0039 45 5.02737 43.1366 0 39.9024C0.914096 40.0078 1.79291 40.043 2.74218 40.043C8.05069 40.043 12.9375 38.2501 16.8398 35.1915C11.8476 35.0859 7.66404 31.8164 6.22261 27.3164C6.92579 27.4218 7.62887 27.4921 8.36722 27.4921C9.38672 27.4921 10.4063 27.3515 11.3555 27.1055C6.15237 26.0507 2.24991 21.4804 2.24991 15.9609V15.8203C3.76157 16.6641 5.51953 17.1914 7.38268 17.2617C4.32407 15.2226 2.32025 11.7421 2.32025 7.80461C2.32025 5.69527 2.88264 3.76168 3.86708 2.07417C9.45695 8.96479 17.8593 13.4647 27.2811 13.957C27.1054 13.1132 26.9999 12.2344 26.9999 11.3555C26.9999 5.0976 32.0624 0 38.3554 0C41.6249 0 44.578 1.37109 46.6522 3.58594C49.2186 3.09377 51.6795 2.14451 53.8593 0.843756C53.0154 3.48053 51.2225 5.69538 48.8671 7.10153C51.1523 6.85556 53.3671 6.22261 55.4061 5.34379C53.8595 7.5937 51.9258 9.59752 49.7109 11.2148Z" fill="#F3FAFF"/>
</svg>
